<svg width="215" height="52" viewBox="0 0 215 52" fill="none" xmlns="http://www.w3.org/2000/svg">
<path d="M54.5 21.1951V39C54.5 40.933 52.933 42.5 51 42.5H16.9996C15.0666 42.5 13.4996 40.933 13.4996 39V21.2147C13.4996 20.1648 13.9709 19.1704 14.7835 18.5057L31.9344 4.47579C33.2318 3.41452 35.0994 3.422 36.3882 4.49364L53.2377 18.5039C54.0374 19.1689 54.5 20.1551 54.5 21.1951Z" stroke="white"/>
<path d="M39.2074 30.4832L33.4186 33.1194C30.4388 34.4764 27.0536 32.2983 27.0536 29.0241V23.7517C27.0536 20.4775 30.4388 18.2994 33.4186 19.6564L39.2074 22.2926C42.7207 23.8925 42.7207 28.8833 39.2074 30.4832Z" fill="#D9D9D9" stroke="white"/>
<path d="M84.336 22.928C84.336 24.7413 83.8667 26.4053 82.928 27.92C81.9893 29.4347 80.624 30.672 78.832 31.632C77.04 32.592 74.9067 33.1573 72.432 33.328L71.056 41.04C70.5227 44.0053 69.072 45.488 66.704 45.488C65.4027 45.488 64.1973 45.104 63.088 44.336C62 43.568 61.1253 42.3947 60.464 40.816C59.8027 39.2373 59.472 37.296 59.472 34.992C59.472 30.6613 60.1653 26.992 61.552 23.984C62.96 20.9547 64.8373 18.6933 67.184 17.2C69.552 15.6853 72.1547 14.928 74.992 14.928C76.9973 14.928 78.6933 15.28 80.08 15.984C81.488 16.688 82.544 17.648 83.248 18.864C83.9733 20.0587 84.336 21.4133 84.336 22.928ZM73.008 30.032C77.3813 29.4773 79.568 27.2053 79.568 23.216C79.568 21.808 79.0987 20.6667 78.16 19.792C77.2427 18.896 75.8133 18.448 73.872 18.448C71.6747 18.448 69.7547 19.1413 68.112 20.528C66.4907 21.9147 65.232 23.8453 64.336 26.32C63.4613 28.7733 63.024 31.5787 63.024 34.736C63.024 36.0587 63.152 37.232 63.408 38.256C63.6853 39.28 64.0267 40.08 64.432 40.656C64.8587 41.2107 65.264 41.488 65.648 41.488C66.1813 41.488 66.5867 40.752 66.864 39.28L67.92 33.232C67.088 33.104 66.7253 33.0507 66.832 33.072C66.192 32.9653 65.776 32.7733 65.584 32.496C65.392 32.1973 65.296 31.824 65.296 31.376C65.296 30.9067 65.424 30.5333 65.68 30.256C65.9573 29.9787 66.3307 29.84 66.8 29.84C67.0133 29.84 67.1733 29.8507 67.28 29.872C67.792 29.9573 68.1867 30.0107 68.464 30.032C68.7413 28.368 69.136 26.1387 69.648 23.344C69.776 22.6187 70.064 22.1067 70.512 21.808C70.9813 21.488 71.5253 21.328 72.144 21.328C72.848 21.328 73.3493 21.4667 73.648 21.744C73.968 22 74.128 22.416 74.128 22.992C74.128 23.3333 74.1067 23.6107 74.064 23.824L73.008 30.032ZM97.414 34.864C97.6913 34.864 97.9047 34.992 98.054 35.248C98.2247 35.504 98.31 35.856 98.31 36.304C98.31 37.1573 98.1073 37.8187 97.702 38.288C96.7847 39.4187 95.782 40.3467 94.694 41.072C93.6273 41.7973 92.4113 42.16 91.046 42.16C89.1687 42.16 87.7713 41.3067 86.854 39.6C85.958 37.8933 85.51 35.6853 85.51 32.976C85.51 30.3733 85.8407 27.408 86.502 24.08C87.1847 20.752 88.1767 17.8933 89.478 15.504C90.8007 13.1147 92.3687 11.92 94.182 11.92C95.206 11.92 96.006 12.4 96.582 13.36C97.1793 14.2987 97.478 15.6533 97.478 17.424C97.478 19.9627 96.774 22.9067 95.366 26.256C93.958 29.6053 92.0487 32.9227 89.638 36.208C89.7873 37.0827 90.0327 37.712 90.374 38.096C90.7153 38.4587 91.1633 38.64 91.718 38.64C92.5927 38.64 93.3607 38.3947 94.022 37.904C94.6833 37.392 95.526 36.528 96.55 35.312C96.806 35.0133 97.094 34.864 97.414 34.864ZM93.478 15.088C92.9873 15.088 92.4327 15.9733 91.814 17.744C91.1953 19.5147 90.6513 21.712 90.182 24.336C89.7127 26.96 89.4567 29.4773 89.414 31.888C90.9287 29.392 92.134 26.896 93.03 24.4C93.926 21.8827 94.374 19.5893 94.374 17.52C94.374 15.8987 94.0753 15.088 93.478 15.088ZM99.347 42.16C98.0243 42.16 96.9683 41.68 96.179 40.72C95.3897 39.76 94.995 38.5013 94.995 36.944C94.995 35.2373 95.3897 33.6267 96.179 32.112C96.9683 30.576 98.0137 29.3493 99.315 28.432C100.638 27.4933 102.035 27.024 103.507 27.024C103.976 27.024 104.286 27.12 104.435 27.312C104.606 27.4827 104.744 27.8027 104.851 28.272C105.299 28.1867 105.768 28.144 106.259 28.144C107.304 28.144 107.827 28.5173 107.827 29.264C107.827 29.712 107.667 30.7787 107.347 32.464C106.856 34.9173 106.611 36.624 106.611 37.584C106.611 37.904 106.686 38.16 106.835 38.352C107.006 38.544 107.219 38.64 107.475 38.64C107.88 38.64 108.371 38.384 108.947 37.872C109.523 37.3387 110.302 36.4853 111.283 35.312C111.539 35.0133 111.827 34.864 112.147 34.864C112.424 34.864 112.638 34.992 112.787 35.248C112.958 35.504 113.043 35.856 113.043 36.304C113.043 37.1573 112.84 37.8187 112.435 38.288C111.56 39.376 110.632 40.2933 109.651 41.04C108.67 41.7867 107.72 42.16 106.803 42.16C106.099 42.16 105.448 41.9253 104.851 41.456C104.275 40.9653 103.838 40.304 103.539 39.472C102.43 41.264 101.032 42.16 99.347 42.16ZM100.499 38.928C100.968 38.928 101.416 38.6507 101.843 38.096C102.27 37.5413 102.579 36.8053 102.771 35.888L103.955 30C103.059 30.0213 102.227 30.3627 101.459 31.024C100.712 31.664 100.115 32.5173 99.667 33.584C99.219 34.6507 98.995 35.7813 98.995 36.976C98.995 37.6373 99.123 38.128 99.379 38.448C99.6563 38.768 100.03 38.928 100.499 38.928ZM116.554 42.16C114.464 42.16 112.832 41.5733 111.658 40.4C110.506 39.2053 109.93 37.6373 109.93 35.696C109.93 33.968 110.272 32.4533 110.954 31.152C111.637 29.8507 112.522 28.848 113.61 28.144C114.698 27.44 115.84 27.088 117.034 27.088C118.208 27.088 119.114 27.44 119.754 28.144C120.416 28.8267 120.746 29.712 120.746 30.8C120.746 31.696 120.544 32.4533 120.138 33.072C119.754 33.6907 119.242 34 118.602 34C118.197 34 117.866 33.904 117.61 33.712C117.376 33.52 117.258 33.2533 117.258 32.912C117.258 32.7627 117.28 32.592 117.322 32.4C117.365 32.208 117.397 32.0693 117.418 31.984C117.525 31.664 117.578 31.3653 117.578 31.088C117.578 30.8107 117.504 30.5973 117.354 30.448C117.226 30.2987 117.034 30.224 116.778 30.224C116.288 30.224 115.829 30.448 115.402 30.896C114.976 31.3227 114.634 31.9093 114.378 32.656C114.122 33.4027 113.994 34.224 113.994 35.12C113.994 37.5947 115.072 38.832 117.226 38.832C118.101 38.832 119.04 38.544 120.042 37.968C121.066 37.3707 122.069 36.4853 123.05 35.312C123.306 35.0133 123.594 34.864 123.914 34.864C124.192 34.864 124.405 34.992 124.554 35.248C124.725 35.504 124.81 35.856 124.81 36.304C124.81 37.1147 124.608 37.776 124.202 38.288C123.2 39.5253 121.994 40.4853 120.586 41.168C119.2 41.8293 117.856 42.16 116.554 42.16ZM136.496 34.864C136.773 34.864 136.986 34.992 137.135 35.248C137.306 35.504 137.392 35.856 137.392 36.304C137.392 37.1573 137.189 37.8187 136.784 38.288C135.994 39.248 134.874 40.1333 133.424 40.944C131.994 41.7547 130.458 42.16 128.816 42.16C126.576 42.16 124.837 41.552 123.6 40.336C122.362 39.12 121.743 37.456 121.743 35.344C121.743 33.872 122.053 32.5067 122.672 31.248C123.29 29.968 124.144 28.9547 125.232 28.208C126.341 27.4613 127.589 27.088 128.976 27.088C130.213 27.088 131.205 27.4613 131.952 28.208C132.698 28.9333 133.072 29.9253 133.072 31.184C133.072 32.656 132.538 33.9253 131.472 34.992C130.426 36.0373 128.645 36.8693 126.128 37.488C126.661 38.4693 127.674 38.96 129.168 38.96C130.128 38.96 131.216 38.6293 132.432 37.968C133.669 37.2853 134.736 36.4 135.632 35.312C135.888 35.0133 136.176 34.864 136.496 34.864ZM128.432 30.224C127.642 30.224 126.97 30.6827 126.416 31.6C125.882 32.5173 125.616 33.6267 125.616 34.928V34.992C126.874 34.6933 127.866 34.2453 128.592 33.648C129.317 33.0507 129.68 32.3573 129.68 31.568C129.68 31.1627 129.562 30.8427 129.328 30.608C129.114 30.352 128.816 30.224 128.432 30.224ZM161.634 15.472C162.231 15.5573 162.637 15.7387 162.85 16.016C163.085 16.2933 163.202 16.656 163.202 17.104C163.202 18.576 162.413 19.2587 160.834 19.152L159.714 19.056C158.455 18.9493 157.197 18.864 155.938 18.8C154.701 18.736 153.399 18.704 152.034 18.704H150.594C150.338 21.8613 150.071 24.7413 149.794 27.344L155.298 27.248C156.087 27.248 156.61 27.3867 156.866 27.664C157.143 27.9413 157.282 28.3147 157.282 28.784C157.282 29.5093 157.069 30.0853 156.642 30.512C156.215 30.9173 155.607 31.12 154.818 31.12H149.346L149.154 32.496C148.706 36.016 147.746 38.5227 146.274 40.016C144.823 41.5093 142.818 42.256 140.258 42.256C138.807 42.256 137.474 41.9467 136.258 41.328C135.042 40.688 134.146 39.92 133.57 39.024C133.335 38.6613 133.218 38.224 133.218 37.712C133.218 37.2 133.335 36.752 133.57 36.368C133.826 35.984 134.135 35.792 134.498 35.792C134.754 35.792 134.999 35.8773 135.234 36.048C135.49 36.2187 135.81 36.5493 136.194 37.04C137.218 38.384 138.487 39.056 140.002 39.056C141.218 39.056 142.231 38.5653 143.042 37.584C143.874 36.5813 144.407 35.0133 144.642 32.88L144.834 31.12H143.298C142.807 31.12 142.381 30.9813 142.018 30.704C141.677 30.4267 141.506 30.032 141.506 29.52C141.506 28.8587 141.677 28.3573 142.018 28.016C142.359 27.6533 142.861 27.472 143.522 27.472C144.119 27.472 144.706 27.4613 145.282 27.44C145.538 25.0933 145.815 22.2453 146.114 18.896C143.81 19.1093 142.189 19.4827 141.25 20.016C140.311 20.5493 139.842 21.3387 139.842 22.384C139.842 23.1093 140.055 23.8027 140.482 24.464C140.61 24.656 140.674 24.848 140.674 25.04C140.674 25.424 140.461 25.7653 140.034 26.064C139.607 26.3413 139.127 26.48 138.594 26.48C138.018 26.48 137.527 26.3093 137.122 25.968C136.866 25.7547 136.621 25.3173 136.386 24.656C136.151 23.9947 136.034 23.2587 136.034 22.448C136.034 19.8027 137.389 17.8827 140.098 16.688C142.829 15.4933 146.807 14.896 152.034 14.896C155.661 14.896 158.861 15.088 161.634 15.472ZM161.759 24.976C160.863 24.976 160.191 24.7733 159.743 24.368C159.295 23.9413 159.071 23.3547 159.071 22.608C159.071 21.8613 159.359 21.2427 159.935 20.752C160.533 20.24 161.269 19.984 162.143 19.984C162.933 19.984 163.573 20.176 164.063 20.56C164.554 20.944 164.799 21.488 164.799 22.192C164.799 23.0453 164.522 23.728 163.967 24.24C163.413 24.7307 162.677 24.976 161.759 24.976ZM161.503 42.16C160.117 42.16 159.103 41.6693 158.463 40.688C157.845 39.7067 157.535 38.4053 157.535 36.784C157.535 35.824 157.653 34.5973 157.887 33.104C158.143 31.5893 158.463 30.1813 158.847 28.88C159.039 28.1973 159.295 27.728 159.615 27.472C159.935 27.216 160.447 27.088 161.151 27.088C162.239 27.088 162.783 27.4507 162.783 28.176C162.783 28.7093 162.581 29.9467 162.175 31.888C161.663 34.2347 161.407 35.824 161.407 36.656C161.407 37.296 161.493 37.7867 161.663 38.128C161.834 38.4693 162.122 38.64 162.527 38.64C162.911 38.64 163.391 38.3733 163.967 37.84C164.543 37.3067 165.311 36.464 166.271 35.312C166.527 35.0133 166.815 34.864 167.135 34.864C167.413 34.864 167.626 34.992 167.775 35.248C167.946 35.504 168.031 35.856 168.031 36.304C168.031 37.1573 167.829 37.8187 167.423 38.288C165.311 40.8693 163.338 42.16 161.503 42.16ZM177.57 34.864C177.848 34.864 178.061 34.992 178.21 35.248C178.381 35.504 178.466 35.856 178.466 36.304C178.466 37.1573 178.264 37.8187 177.858 38.288C176.941 39.4187 175.938 40.3467 174.85 41.072C173.784 41.7973 172.568 42.16 171.202 42.16C169.325 42.16 167.928 41.3067 167.01 39.6C166.114 37.8933 165.666 35.6853 165.666 32.976C165.666 30.3733 165.997 27.408 166.658 24.08C167.341 20.752 168.333 17.8933 169.634 15.504C170.957 13.1147 172.525 11.92 174.338 11.92C175.362 11.92 176.162 12.4 176.738 13.36C177.336 14.2987 177.634 15.6533 177.634 17.424C177.634 19.9627 176.93 22.9067 175.522 26.256C174.114 29.6053 172.205 32.9227 169.794 36.208C169.944 37.0827 170.189 37.712 170.53 38.096C170.872 38.4587 171.32 38.64 171.874 38.64C172.749 38.64 173.517 38.3947 174.178 37.904C174.84 37.392 175.682 36.528 176.706 35.312C176.962 35.0133 177.25 34.864 177.57 34.864ZM173.634 15.088C173.144 15.088 172.589 15.9733 171.97 17.744C171.352 19.5147 170.808 21.712 170.338 24.336C169.869 26.96 169.613 29.4773 169.57 31.888C171.085 29.392 172.29 26.896 173.186 24.4C174.082 21.8827 174.53 19.5893 174.53 17.52C174.53 15.8987 174.232 15.088 173.634 15.088ZM178.152 42.16C177.341 42.16 176.765 41.7333 176.424 40.88C176.104 40.0267 175.944 38.6613 175.944 36.784C175.944 34.0107 176.338 31.376 177.128 28.88C177.32 28.2613 177.629 27.8133 178.056 27.536C178.504 27.2373 179.122 27.088 179.912 27.088C180.338 27.088 180.637 27.1413 180.808 27.248C180.978 27.3547 181.064 27.5573 181.064 27.856C181.064 28.1973 180.904 28.9653 180.584 30.16C180.37 31.0133 180.2 31.76 180.072 32.4C179.944 33.0187 179.837 33.7973 179.752 34.736C180.328 33.072 181.01 31.664 181.8 30.512C182.61 29.36 183.432 28.5067 184.264 27.952C185.117 27.376 185.917 27.088 186.664 27.088C187.41 27.088 187.933 27.2587 188.232 27.6C188.552 27.9413 188.712 28.464 188.712 29.168C188.712 29.8507 188.509 31.088 188.104 32.88C187.933 33.648 187.816 34.224 187.752 34.608C188.456 32.816 189.234 31.3547 190.088 30.224C190.962 29.0933 191.816 28.2933 192.648 27.824C193.48 27.3333 194.248 27.088 194.952 27.088C195.634 27.088 196.146 27.2693 196.488 27.632C196.85 27.9733 197.032 28.4853 197.032 29.168C197.032 29.7227 196.914 30.768 196.68 32.304C196.466 33.6053 196.296 34.8427 196.168 36.016C196.04 37.168 195.976 38.4587 195.976 39.888C195.976 40.6987 195.805 41.2853 195.464 41.648C195.144 41.9893 194.61 42.16 193.864 42.16C193.16 42.16 192.648 41.9787 192.328 41.616C192.008 41.2533 191.848 40.7093 191.848 39.984C191.848 39.1307 191.997 37.7227 192.296 35.76C192.552 34.0533 192.68 32.9653 192.68 32.496C192.68 32.1547 192.562 31.984 192.328 31.984C192.05 31.984 191.656 32.3467 191.144 33.072C190.632 33.776 190.12 34.7147 189.608 35.888C189.096 37.0613 188.68 38.2987 188.36 39.6C188.125 40.624 187.848 41.3067 187.528 41.648C187.229 41.9893 186.738 42.16 186.056 42.16C185.352 42.16 184.818 41.8293 184.456 41.168C184.114 40.4853 183.944 39.664 183.944 38.704C183.944 37.8933 184.05 36.72 184.264 35.184C184.434 33.8187 184.52 32.9227 184.52 32.496C184.52 32.1547 184.402 31.984 184.168 31.984C183.848 31.984 183.442 32.368 182.952 33.136C182.461 33.904 181.981 34.8853 181.512 36.08C181.064 37.2747 180.701 38.448 180.424 39.6C180.189 40.6027 179.912 41.2853 179.592 41.648C179.293 41.9893 178.813 42.16 178.152 42.16Z" fill="white"/>
<line y1="49.5" x2="215" y2="49.5" stroke="white"/>
</svg>
